<svg width="1024" height="1024" viewBox="0 0 1024 1024" fill="none" xmlns="http://www.w3.org/2000/svg">
<circle cx="512" cy="512" r="512" fill="black"/>
<path d="M878.571 456.003C903.415 486.562 901.883 530.757 875.059 559.561L747.293 696.667L665.702 784.198C658.23 792.193 647.769 796.751 636.823 796.751H387.567C376.62 796.751 366.16 792.193 358.688 784.198L277.097 696.667L149.331 559.561C122.47 530.757 120.975 486.562 145.819 456.003L281.991 288.412L320.209 241.34C333.957 224.416 358.8 221.876 375.724 235.587L422.758 273.805L500.24 336.754C503.304 339.257 505.097 342.993 505.097 346.953V457.011C505.097 462.092 499.231 464.857 495.271 461.681L468.224 439.714L390.294 376.391C373.37 362.643 348.527 365.221 334.779 382.145L256.774 478.156C244.371 493.436 245.118 515.515 258.53 529.935L310.944 586.197L402.248 684.114C409.72 692.109 420.181 696.667 431.089 696.667H593.3C604.247 696.667 614.707 692.109 622.179 684.114L713.446 586.16L765.86 529.935C779.272 515.515 780.056 493.436 767.616 478.156L689.611 382.145C675.863 365.221 651.02 362.681 634.096 376.391L566.178 431.57L529.081 461.681C525.158 464.894 519.256 462.055 519.256 457.011V346.953C519.256 342.993 521.049 339.257 524.112 336.754L601.594 273.842L648.666 235.624C665.589 221.876 690.433 224.454 704.181 241.377L742.399 288.449L878.571 456.003Z" fill="white"/>
</svg>
